<?xml version="1.0" encoding="UTF-8"?>
<svg version="1.1" viewBox="0 0 1728 1756" width="432" height="439" xmlns="http://www.w3.org/2000/svg">
<path transform="translate(0)" d="m0 0h1728v1756h-1728z"/>
<path transform="translate(182,158)" d="m0 0 870 1 40 1 24 3 33 7 25 5 31 8 25 7 20 8 29 12 29 15 20 12 25 17 14 11 16 13 12 11 10 9 15 15v2h2l7 8 9 10 11 14 16 21 13 20 14 24 14 27 14 33 10 27 10 33 8 32 6 28 8 43 4 36 2 33 2 57v856l-2 1h-470l-1-11v-779l-1-5-1-28-5-29-6-24-8-23-8-16-14-21-12-13-15-15-13-10-24-14-19-8-19-6-20-4-19-3-7-1-254-1 1 2v1008l-1 1h-470v-543l462-462 4-6-465 1-1-1z" fill="#fff"/>
</svg>
